HIERARCHY
ROOT Hips
{
 OFFSET 0.000000 0.000000 0.000000
 CHANNELS 6 Xposition Yposition Zposition Yrotation Xrotation Zrotation
 JOINT Chest
 {
  OFFSET 0.000000 10.383400 0.001500
  CHANNELS 3 Yrotation Xrotation Zrotation
  JOINT Chest2
  {
   OFFSET 0.000000 10.418200 -0.003100
   CHANNELS 3 Yrotation Xrotation Zrotation
   JOINT Chest3
   {
    OFFSET 0.000000 10.375100 0.000000
    CHANNELS 3 Yrotation Xrotation Zrotation
    JOINT Chest4
    {
     OFFSET 0.000000 10.364600 0.000000
     CHANNELS 3 Yrotation Xrotation Zrotation
     JOINT Neck
     {
      OFFSET 0.000000 15.642200 0.000000
      CHANNELS 3 Yrotation Xrotation Zrotation
      JOINT Head
      {
       OFFSET 0.000000 9.697300 -0.006500
       CHANNELS 3 Yrotation Xrotation Zrotation
       End Site
       {
        OFFSET 0.000000 18.492200 -0.003400
       }
      }
     }
     JOINT RightCollar
     {
      OFFSET -3.166800 10.349300 0.000000
      CHANNELS 3 Yrotation Xrotation Zrotation
      JOINT RightShoulder
      {
       OFFSET -14.729700 0.000000 0.000000
       CHANNELS 3 Yrotation Xrotation Zrotation
       JOINT RightElbow
       {
        OFFSET 0.000000 -32.224300 0.000000
        CHANNELS 3 Yrotation Xrotation Zrotation
        JOINT RightWrist
        {
         OFFSET 0.000000 -26.084100 0.000000
         CHANNELS 3 Yrotation Xrotation Zrotation
         End Site
         {
          OFFSET 0.000000 -19.319400 0.000000
         }
        }
       }
      }
     }
     JOINT LeftCollar
     {
      OFFSET 3.166800 10.349300 0.000000
      CHANNELS 3 Yrotation Xrotation Zrotation
      JOINT LeftShoulder
      {
       OFFSET 14.729700 0.000000 0.000000
       CHANNELS 3 Yrotation Xrotation Zrotation
       JOINT LeftElbow
       {
        OFFSET 0.000000 -32.224300 0.000000
        CHANNELS 3 Yrotation Xrotation Zrotation
        JOINT LeftWrist
        {
         OFFSET 0.000000 -26.084100 0.000000
         CHANNELS 3 Yrotation Xrotation Zrotation
         End Site
         {
          OFFSET 0.000000 -19.319400 0.000000
         }
        }
       }
      }
     }
    }
   }
  }
 }
 JOINT RightHip
 {
  OFFSET -8.428900 -0.007500 -0.000800
  CHANNELS 3 Yrotation Xrotation Zrotation
  JOINT RightKnee
  {
   OFFSET 0.000000 -43.834600 0.000700
   CHANNELS 3 Yrotation Xrotation Zrotation
   JOINT RightAnkle
   {
    OFFSET 0.000000 -42.757000 0.001200
    CHANNELS 3 Yrotation Xrotation Zrotation
    JOINT RightToe
    {
     OFFSET 0.000000 -6.946900 15.649300
     CHANNELS 3 Yrotation Xrotation Zrotation
     End Site
     {
      OFFSET 0.000000 -1.580800 6.825800
     }
    }
   }
  }
 }
 JOINT LeftHip
 {
  OFFSET 8.428900 -0.007500 -0.000800
  CHANNELS 3 Yrotation Xrotation Zrotation
  JOINT LeftKnee
  {
   OFFSET 0.000000 -43.834600 0.000700
   CHANNELS 3 Yrotation Xrotation Zrotation
   JOINT LeftAnkle
   {
    OFFSET 0.000000 -42.757000 0.001200
    CHANNELS 3 Yrotation Xrotation Zrotation
    JOINT LeftToe
    {
     OFFSET 0.000000 -6.946900 15.649300
     CHANNELS 3 Yrotation Xrotation Zrotation
     End Site
     {
      OFFSET 0.000000 -1.580800 6.825800
     }
    }
   }
  }
 }
}
MOTION
Frames: 9
Frame Time: 0.008333
123.399564 126.794076 36.217014 -13.836517 -25.668751 -2.402535 -3.398320 21.181248 2.280989 -0.483845 2.887120 0.372365 -0.821019 4.591029 0.605561 -2.903806 18.062479 2.005405 2.699486 12.280499 -3.691273 6.669081 -12.685380 -8.147927 -1.280009 -5.939558 -7.019656 5.117513 -11.577034 4.785278 35.601558 -48.772897 -20.524213 11.662124 3.896879 -27.518883 -4.911182 -4.775227 -1.632064 -0.491738 -2.112279 -0.325938 -38.965051 -59.970064 31.685092 -24.012656 4.936983 24.269909 -5.104087 -41.549178 -1.579768 -39.064303 79.716537 -40.508911 2.823886 -10.817593 4.853717 0.003900 -0.003268 0.001731 -6.121694 -34.988633 -6.859256 3.343894 74.447331 7.353811 -10.389639 -11.334344 -1.636515 -0.001819 0.000677 -0.000808
123.398941 126.796227 36.213419 -13.841753 -25.702394 -2.402512 -3.406378 21.174408 2.280796 -0.498386 2.852964 0.374220 -0.803741 4.642539 0.598545 -2.920620 18.030921 2.005762 2.700530 12.289661 -3.694235 6.652612 -12.692036 -8.146207 -1.257638 -5.941651 -7.026985 5.103954 -11.602282 4.782816 35.486660 -48.724856 -20.415677 11.647901 3.893939 -27.494959 -4.892942 -4.734988 -1.649491 -0.488167 -2.136224 -0.331614 -38.876326 -59.988123 31.613409 -24.045573 4.952307 24.231994 -5.100904 -41.519245 -1.583159 -39.067748 79.716361 -40.503086 2.823574 -10.814385 4.848775 0.006623 0.000009 0.002940 -6.145678 -34.964542 -6.837158 3.366454 74.452383 7.349910 -10.394664 -11.332267 -1.637866 -0.001655 -0.000121 -0.000735
123.399592 126.797226 36.207565 -13.843519 -25.723109 -2.399846 -3.414046 21.164068 2.278373 -0.494161 2.873210 0.370962 -0.806834 4.629973 0.599701 -2.931047 18.000981 2.008288 2.699017 12.299793 -3.695252 6.653047 -12.664038 -8.144722 -1.243649 -5.949688 -7.035071 5.086736 -11.623317 4.782939 35.370128 -48.679957 -20.305652 11.639745 3.886017 -27.461858 -4.882522 -4.738507 -1.671405 -0.484233 -2.211865 -0.332746 -38.698721 -59.908898 31.426247 -24.033614 4.938753 24.192710 -5.116282 -41.509741 -1.587942 -39.044866 79.728484 -40.479770 2.829606 -10.804575 4.844307 0.006377 0.001844 0.002831 -6.149360 -34.951934 -6.834650 3.390770 74.453452 7.372481 -10.411423 -11.325215 -1.644096 -0.002511 0.001741 -0.001115
123.400642 126.797981 36.201305 -13.844323 -25.742589 -2.395704 -3.417294 21.172896 2.273548 -0.501696 2.840794 0.375141 -0.808259 4.628053 0.598653 -2.951854 17.953254 2.009157 2.707346 12.355353 -3.701251 6.663390 -12.630442 -8.148902 -1.221064 -5.971176 -7.040751 5.084916 -11.589781 4.776304 35.286533 -48.627594 -20.212400 11.602779 3.876833 -27.437123 -4.882359 -4.768622 -1.708634 -0.450800 -2.184636 -0.321077 -38.555399 -59.863958 31.273015 -24.037987 4.934324 24.166659 -5.144640 -41.506982 -1.591463 -39.010359 79.747131 -40.452697 2.842437 -10.787236 4.848559 0.005649 0.001883 0.002508 -6.152665 -34.939020 -6.841719 3.419109 74.450716 7.398022 -10.385723 -11.317722 -1.657503 -0.000079 0.003261 -0.000035
123.399631 126.802557 36.202747 -13.848185 -25.811710 -2.390907 -3.423160 21.200128 2.268398 -0.509454 2.803908 0.378643 -0.804427 4.662913 0.593086 -2.956798 17.957094 2.003025 2.695812 12.327173 -3.686236 6.673355 -12.579314 -8.152264 -1.214038 -5.990715 -7.039393 5.083990 -11.607960 4.768769 35.156427 -48.592077 -20.109678 11.614849 3.868936 -27.398383 -4.885717 -4.790147 -1.722673 -0.434451 -2.161224 -0.317162 -38.481266 -59.860399 31.197959 -24.050941 4.938881 24.146045 -5.134390 -41.441323 -1.605862 -39.018598 79.746493 -40.447203 2.845720 -10.781509 4.836413 0.011676 0.002245 0.005184 -6.159924 -34.872146 -6.841579 3.422956 74.448888 7.389987 -10.390074 -11.315735 -1.658918 0.000808 0.002741 0.000359
123.400031 126.804151 36.198382 -13.851674 -25.843465 -2.386263 -3.434191 21.162288 2.265737 -0.504051 2.839368 0.373577 -0.809035 4.659354 0.593078 -2.956859 17.959655 1.997667 2.692809 12.331479 -3.679107 6.646452 -12.592731 -8.117012 -1.215081 -6.015995 -7.033887 5.094140 -11.623059 4.756162 35.041699 -48.552528 -20.017151 11.640854 3.864395 -27.371876 -4.889731 -4.818782 -1.730745 -0.429749 -2.188894 -0.312287 -38.361100 -59.802540 31.069578 -24.057478 4.943584 24.138844 -5.136906 -41.420936 -1.618840 -38.999023 79.754966 -40.417399 2.855037 -10.771181 4.822753 0.011872 0.000919 0.005270 -6.166973 -34.847780 -6.841967 3.431726 74.450025 7.389520 -10.382640 -11.311363 -1.659854 0.001211 0.002346 0.000538
123.401262 126.805375 36.193715 -13.860299 -25.870482 -2.375358 -3.431629 21.164412 2.256453 -0.505133 2.830995 0.373396 -0.810361 4.658060 0.595588 -2.956746 17.958387 1.990775 2.688885 12.333196 -3.670043 6.643884 -12.572634 -8.110250 -1.220218 -6.041181 -7.024817 5.107467 -11.636578 4.739411 34.963412 -48.503322 -19.935243 11.598529 3.858924 -27.363912 -4.893404 -4.850395 -1.734498 -0.437967 -2.216207 -0.306887 -38.234711 -59.741430 30.937867 -24.048712 4.945107 24.123410 -5.151226 -41.416576 -1.632961 -38.956288 79.776737 -40.379116 2.869038 -10.751797 4.821662 0.007454 -0.007020 0.003309 -6.184965 -34.830576 -6.836845 3.463381 74.450295 7.398372 -10.387867 -11.306587 -1.661857 -0.000388 0.001640 -0.000172
123.401284 126.806366 36.188272 -13.866406 -25.892213 -2.373213 -3.426396 21.178082 2.255283 -0.508422 2.806030 0.374018 -0.810409 4.631847 0.594089 -2.954952 17.979034 1.987430 2.685531 12.332946 -3.659815 6.640214 -12.548494 -8.103247 -1.224357 -6.062177 -7.013996 5.118723 -11.613429 4.726903 34.893198 -48.485777 -19.900037 11.565859 3.863065 -27.302502 -4.895264 -4.879481 -1.738783 -0.442538 -2.187330 -0.304645 -38.172453 -59.731387 30.881643 -24.046944 4.949351 24.092855 -5.153195 -41.401647 -1.636378 -38.938880 79.777455 -40.354203 2.879883 -10.745955 4.811671 0.008214 -0.004839 0.003646 -6.181577 -34.814719 -6.835589 3.472229 74.449578 7.410271 -10.406364 -11.300825 -1.660926 -0.000916 0.003411 -0.000407
123.401633 126.806524 36.181156 -13.867708 -25.900698 -2.373860 -3.431312 21.155747 2.254791 -0.507005 2.802425 0.373855 -0.807977 4.657631 0.592296 -2.954929 17.945320 1.987094 2.682933 12.332229 -3.648902 6.615238 -12.594964 -8.055471 -1.225017 -6.078093 -7.003263 5.126080 -11.589794 4.714197 34.823308 -48.480277 -19.882007 11.587173 3.868096 -27.245859 -4.894190 -4.903497 -1.745801 -0.451212 -2.160701 -0.301659 -38.110591 -59.723917 30.825692 -24.049984 4.960353 24.060713 -5.162717 -41.400007 -1.637528 -38.923337 79.777330 -40.332182 2.891201 -10.737619 4.808951 0.008120 -0.001375 0.003605 -6.198101 -34.816200 -6.826899 3.500268 74.451986 7.428624 -10.406053 -11.296245 -1.666365 -0.001390 0.003637 -0.000617
